<svg id="visual" viewBox="0 0 900 600" width="900" height="600" xmlns="http://www.w3.org/2000/svg" xmlns:xlink="http://www.w3.org/1999/xlink" version="1.1"><rect x="0" y="0" width="900" height="600" fill="#CCCCCC"></rect><path d="M0 411L129 406L257 444L386 384L514 390L643 410L771 384L900 379L900 601L771 601L643 601L514 601L386 601L257 601L129 601L0 601Z" fill="#cccccc"></path><path d="M0 469L129 470L257 475L386 452L514 449L643 396L771 404L900 420L900 601L771 601L643 601L514 601L386 601L257 601L129 601L0 601Z" fill="#b6b7b7"></path><path d="M0 469L129 442L257 457L386 450L514 473L643 441L771 442L900 503L900 601L771 601L643 601L514 601L386 601L257 601L129 601L0 601Z" fill="#a0a2a2"></path><path d="M0 527L129 539L257 497L386 515L514 484L643 540L771 533L900 542L900 601L771 601L643 601L514 601L386 601L257 601L129 601L0 601Z" fill="#8b8d8e"></path><path d="M0 555L129 526L257 546L386 543L514 567L643 528L771 550L900 556L900 601L771 601L643 601L514 601L386 601L257 601L129 601L0 601Z" fill="#77797a"></path></svg>