<svg id="visual" viewBox="0 0 900 600" width="900" height="600" xmlns="http://www.w3.org/2000/svg" xmlns:xlink="http://www.w3.org/1999/xlink" version="1.1"><rect x="0" y="0" width="900" height="600" fill="#001220"></rect><path d="M0 232L21.5 221.3C43 210.7 86 189.3 128.8 189C171.7 188.7 214.3 209.3 257.2 218.7C300 228 343 226 385.8 215C428.7 204 471.3 184 514.2 171.7C557 159.3 600 154.7 642.8 162.5C685.7 170.3 728.3 190.7 771.2 191.2C814 191.7 857 172.3 878.5 162.7L900 153L900 0L878.5 0C857 0 814 0 771.2 0C728.3 0 685.7 0 642.8 0C600 0 557 0 514.2 0C471.3 0 428.7 0 385.8 0C343 0 300 0 257.2 0C214.3 0 171.7 0 128.8 0C86 0 43 0 21.5 0L0 0Z" fill="#cccccc"></path><path d="M0 169L21.5 168.7C43 168.3 86 167.7 128.8 173.2C171.7 178.7 214.3 190.3 257.2 193.8C300 197.3 343 192.7 385.8 192.8C428.7 193 471.3 198 514.2 186.5C557 175 600 147 642.8 135.8C685.7 124.7 728.3 130.3 771.2 135.2C814 140 857 144 878.5 146L900 148L900 0L878.5 0C857 0 814 0 771.2 0C728.3 0 685.7 0 642.8 0C600 0 557 0 514.2 0C471.3 0 428.7 0 385.8 0C343 0 300 0 257.2 0C214.3 0 171.7 0 128.8 0C86 0 43 0 21.5 0L0 0Z" fill="#ebebeb"></path><path d="M0 95L21.5 99.2C43 103.3 86 111.7 128.8 110.5C171.7 109.3 214.3 98.7 257.2 98C300 97.3 343 106.7 385.8 108.8C428.7 111 471.3 106 514.2 113.5C557 121 600 141 642.8 141C685.7 141 728.3 121 771.2 114.8C814 108.7 857 116.3 878.5 120.2L900 124L900 0L878.5 0C857 0 814 0 771.2 0C728.3 0 685.7 0 642.8 0C600 0 557 0 514.2 0C471.3 0 428.7 0 385.8 0C343 0 300 0 257.2 0C214.3 0 171.7 0 128.8 0C86 0 43 0 21.5 0L0 0Z" fill="#ffffff"></path><path d="M0 73L21.5 77C43 81 86 89 128.8 94.2C171.7 99.3 214.3 101.7 257.2 94.8C300 88 343 72 385.8 72C428.7 72 471.3 88 514.2 96.5C557 105 600 106 642.8 100.2C685.7 94.3 728.3 81.7 771.2 77.5C814 73.3 857 77.7 878.5 79.8L900 82L900 0L878.5 0C857 0 814 0 771.2 0C728.3 0 685.7 0 642.8 0C600 0 557 0 514.2 0C471.3 0 428.7 0 385.8 0C343 0 300 0 257.2 0C214.3 0 171.7 0 128.8 0C86 0 43 0 21.5 0L0 0Z" fill="#ebebeb"></path><path d="M0 67L21.5 67.5C43 68 86 69 128.8 68C171.7 67 214.3 64 257.2 56.5C300 49 343 37 385.8 35.8C428.7 34.7 471.3 44.3 514.2 48.7C557 53 600 52 642.8 47.2C685.7 42.3 728.3 33.7 771.2 36.3C814 39 857 53 878.5 60L900 67L900 0L878.5 0C857 0 814 0 771.2 0C728.3 0 685.7 0 642.8 0C600 0 557 0 514.2 0C471.3 0 428.7 0 385.8 0C343 0 300 0 257.2 0C214.3 0 171.7 0 128.8 0C86 0 43 0 21.5 0L0 0Z" fill="#cccccc"></path></svg>